<mxfile host="app.diagrams.net" modified="2023-04-13T16:06:53.135Z" agent="Mozilla/5.0 (Windows NT 10.0; Win64; x64) AppleWebKit/537.36 (KHTML, like Gecko) Chrome/112.0.0.0 Safari/537.36 Edg/112.0.1722.39" version="21.1.7" etag="y250DCMZJoS0TEee0viD" type="github">
  <diagram name="Page-1" id="1dwGhPLF6W3-djbNwSVc">
    <mxGraphModel>
      <root>
        <mxCell id="0" />
        <mxCell id="1" parent="0" />
      </root>
    </mxGraphModel>
  </diagram>
</mxfile>
